<?xml version="1.0" encoding="utf-8"?>
<!-- Generator: Adobe Illustrator 24.3.0, SVG Export Plug-In . SVG Version: 6.00 Build 0)  -->
<svg version="1.1" id="Layer_1" xmlns="http://www.w3.org/2000/svg" xmlns:xlink="http://www.w3.org/1999/xlink" x="0px" y="0px"
	 viewBox="0 0 181 198" style="enable-background:new 0 0 181 198;" xml:space="preserve">
<style type="text/css">
	.st0{fill:none;stroke:#000000;stroke-width:10;stroke-miterlimit:10;}
	.st1{fill:#D65A31;}
</style>
<path class="st0" d="M181,352"/>
<path class="st0" d="M-178,352"/>
<path class="st1" d="M125,198H50.6l-1-0.2c-9.1-2.5-17.6-6.9-24.9-12.8C13.4,176,0,159.3,0,131V21C0,9.6,10.1,0,22,0h29
	c12.2,0,22,9.8,22,22l0,0v62.1c0,17,9.2,32.8,24,41.2l3.7,2.1c2,1.2,4.1,2.2,6.3,3.1V22c0-12.2,9.8-22,22-22l0,0h28.9
	c12.2,0,22,9.8,22,22c0,0.1,0,0.1,0,0.2l-0.6,64.6c-0.1,21.7-11.2,41.9-29.4,53.7c-8.9,5.8-17,9.2-24.9,10.4L125,198z M52.9,180H107
	v-30.4c-5.3-1.6-10.4-3.8-15.1-6.5l-3.7-2.1C67.7,129.4,55,107.7,55,84.1V22c0-2.2-1.8-4-4-4H22c-2.3,0-4,2-4,3v110
	C18,167.9,47.2,178.3,52.9,180z M129,18c-2.2,0-4,1.8-4,4v110.6c4.6-1.1,9.4-3.5,15.1-7.2c13.2-8.5,21.2-23.1,21.2-38.8l0.6-64.6
	c0-2.2-1.8-4-4-4L129,18z"/>
</svg>
